<svg width="199" version="1.1" viewBox="0 0 37.042 37.042" xmlns="http://www.w3.org/2000/svg">
	<g id="ripeurs-svg-logo">
		<circle id="ripeurs-svg-logo__bg" cx="18.521" cy="18.521" r="18.521" fill="#ff7737"
				style="paint-order: normal"></circle>
		<g id="ripeurs-svg-logo__white" fill="#fff">
			<g>
				<path
					d="m8.3636 22.417c-0.1173 0.1343-0.26378 0.20147-0.43962 0.20147h-0.10257v-1.3481l0.054917 3.6e-5c0.44199-7.1e-5 0.66314 0.21117 0.66314 0.63375-3.54e-5 0.20756-0.058705 0.37861-0.17587 0.51284m1.6925-0.53111c-3.5e-5 -0.63984-0.21747-1.1332-0.65217-1.4801-0.34189-0.27108-0.85714-0.40669-1.5458-0.40662l-1.5644-7e-5 -3.55e-5 5.6564h1.5204v-1.9783l-0.011011-0.37369c0.02691 0.07814 0.049499 0.14538 0.067769 0.20154 0.018376 0.05619 0.031264 0.10123 0.038488 0.1355l0.7546 2.0148 1.6523 7e-5 -1.1357-2.352c0.58362-0.26127 0.87555-0.73392 0.87558-1.4176"></path>
				<path d="m10.822 19.999 7e-5 5.6564 1.5276 3.5e-5v-5.6564z"></path>
				<path
					d="m14.774 22.531v-1.2968h0.10615c0.16613 0 0.30287 0.06221 0.41037 0.18677 0.10739 0.12226 0.16114 0.28089 0.16114 0.47633 0 0.19771-0.05488 0.3535-0.16482 0.46702-0.1099 0.11355-0.25769 0.17031-0.4433 0.17031zm1.5531 0.93054c0.44705-0.33704 0.67044-0.8486 0.67044-1.5349 3.5e-5 -0.63014-0.21007-1.1223-0.63007-1.4764-0.35662-0.30032-0.90363-0.45059-1.6413-0.45059l-1.4799 7.1e-5 -3.6e-5 5.6563 1.5276 3.6e-5 3.6e-5 -1.8538 0.23808 7.1e-5c0.57147-3.6e-5 1.0098-0.11355 1.3151-0.34072"></path>
				<path
					d="m20.372 19.999-2.8391 7e-5 -3.6e-5 5.6563 2.8392 7e-5 -3.5e-5 -1.3592h-1.3115l7.1e-5 -0.86461h1.1758l3.6e-5 -1.2785h-1.1759l-1.06e-4 -0.82424 1.3116 3.5e-5z"></path>
				<path
					d="m22.943 24.326c-0.14174-7.1e-5 -0.24243-0.05131-0.3022-0.15384-0.05994-0.10257-0.0899-0.27713-0.08979-0.52388l-3.6e-5 -3.6487-1.5277-3.6e-5 -3.6e-5 3.7843c7.1e-5 0.72539 0.22473 1.2529 0.67412 1.5827 0.35411 0.25883 0.79256 0.38838 1.3152 0.38828 0.46164 7.1e-5 0.85352-0.11723 1.176-0.35163 0.23925-0.17594 0.41026-0.37245 0.51284-0.58981 0.10491-0.20759 0.15753-0.47867 0.15753-0.8133l-3.6e-5 -4.0004-1.5276-3.6e-5 3.4e-5 3.6525c-7e-5 0.25405-0.02815 0.43101-0.08427 0.53122-0.05619 0.09511-0.1576 0.14283-0.30404 0.1428"></path>
				<path
					d="m27.896 21.904c-3.6e-5 0.20756-0.0586 0.37861-0.17587 0.5128-0.11716 0.13434-0.26368 0.20154-0.43951 0.20154h-0.10268v-1.3481h0.05491c0.44206 7.1e-5 0.66311 0.21128 0.66314 0.63375m-2.2456-1.9049-3.5e-5 5.6563h1.5204v-1.9783l-0.01101-0.37369c0.02691 0.07828 0.04943 0.14538 0.06777 0.20157 0.01827 0.05616 0.03112 0.1013 0.03848 0.13547l0.75464 2.015 1.6521-1.06e-4 -1.1355-2.3518c0.58365-0.26138 0.87552-0.73392 0.87544-1.4178 1.07e-4 -0.63981-0.21733-1.1332-0.65202-1.48-0.34202-0.27115-0.85716-0.40662-1.5459-0.40665z"></path>
				<path
					d="m32.798 22.978c-0.13922-0.24417-0.37-0.48225-0.69242-0.7143l-0.24176-0.17951c-0.20759-0.14896-0.31144-0.29905-0.31141-0.45059 0-0.09277 0.03905-0.17219 0.11727-0.23811 0.0757-0.06837 0.17208-0.10258 0.28942-0.10261 0.15374-3.6e-5 0.3101 0.05559 0.46879 0.16673 0.15884 0.11111 0.30043 0.26318 0.42503 0.45601l-3.6e-5 -1.729c-0.36873-0.19286-0.73512-0.28945-1.0989-0.28938-0.40796 0-0.75598 0.12212-1.0442 0.36618-0.10498 0.08565-0.19771 0.18387-0.2783 0.29505-0.08059 0.11114-0.15161 0.2339-0.21258 0.36813-0.12212 0.28818-0.1832 0.56411-0.1832 0.82782 3.6e-5 0.15392 0.0171 0.3005 0.05134 0.43969 0.0342 0.13922 0.08792 0.27419 0.16121 0.40478 0.07319 0.13069 0.16847 0.25773 0.28574 0.38098 0.11723 0.12346 0.25879 0.24735 0.42499 0.37192l0.24906 0.19417c0.18068 0.14407 0.27108 0.29183 0.27115 0.44326-3.5e-5 0.10498-0.04161 0.1923-0.12456 0.26198-0.08306 0.06954-0.19053 0.10427-0.32245 0.10434-0.34929 3.6e-5 -0.67405-0.20518-0.97448-0.61548l7.1e-5 1.7768c0.41019 0.15877 0.795 0.23815 1.154 0.23818 0.5202-3.5e-5 0.95008-0.18079 1.2896-0.54226 0.33934-0.3614 0.50912-0.8206 0.50908-1.3774 7e-5 -0.32734-0.07085-0.613-0.21241-0.85732"></path>
				<path
					d="m6.1061 17.546c0.078002 0.19562-0.16712 0.55363-0.35535 0.78618 0.00238-0.0519 0.00669-0.10519 0.012605-0.15848 0.012498-0.11224 0.20267-0.97883 0.34274-0.6277m-1.2639-1.0695c0.092625 0.329-0.12608 0.9374-0.19658 1.1776-0.05959 0.20299-0.13285 0.39968-0.21605 0.5919-0.073151-0.61389 0.10566-1.2393 0.41264-1.7695m2.2142 1.2756c0.020112-0.18528 0.080303-0.19304 0.18054-0.02327 0.52806 0.35082-0.19269 1.1263-0.6533 1.0892-0.040895-0.0033-0.075381 0.0076-0.10321 0.02631 0.17151-0.21892 0.31335-0.48841 0.42499-0.72553 0.056404-0.11975 0.10672-0.24197 0.15098-0.36671m-0.70156 1.237c0.022378-0.02302 0.044188-0.0473 0.065716-0.0722-0.038629 0.0865-0.010799 0.19938 0.10881 0.20904 0.67571 0.0545 1.1773-0.44886 1.1605-1.1307-0.00938-0.38353-0.30156-1.1551-0.76841-0.66477-0.32819 0.34472-0.32975 0.94127-0.683 1.3-0.23206 0.23574-0.36384 0.23571-0.43101 0.11876 0.058988-0.06518 0.11295-0.1297 0.16064-0.18925 0.24321-0.30383 0.73204-1.1616 0.36788-1.5463-0.48299-0.51018-0.89878 0.84404-0.86787 1.6264-0.082995 0.07843-0.17041 0.15176-0.26315 0.21878-0.30199 0.02053-0.51401-0.03735-0.63729-0.17258 0.23464-0.47449 0.40963-0.97288 0.51032-1.4979 0.069362-0.36161 0.2072-0.86333-0.13958-1.1166-0.061927-0.04521-0.17105-0.05626-0.22034 0.01809-0.33697 0.50799-0.87806 1.8961-0.54467 2.6789-0.0387 0.07089-0.078144 0.14142-0.11911 0.21134-0.10194 0.17374 0.18136 0.30645 0.28241 0.13416 0.010835-0.01845 0.021315-0.0371 0.031973-0.05566 0.086535 0.08409 0.19421 0.15144 0.32663 0.19722 0.29877 0.10335 0.59392-0.03937 0.84287-0.24548 0.00981 0.02139 0.020536 0.0409 0.032539 0.05779 0.23252 0.32815 0.5566 0.15498 0.78413-0.07899"></path>
				<path
					d="m11.669 17.007c-0.3734 0-0.67606 0.30266-0.67606 0.67606 0 0.37337 0.30266 0.67603 0.67606 0.67603 0.37337 0 0.67606-0.30266 0.67606-0.67603 0-0.3734-0.3027-0.67606-0.67606-0.67606"></path>
				<path
					d="m15.387 17.007c-0.3734 0-0.67606 0.30266-0.67606 0.67606 0 0.37337 0.30266 0.67603 0.67606 0.67603 0.37337 0 0.67607-0.30266 0.67607-0.67603 0-0.3734-0.3027-0.67606-0.67607-0.67606"></path>
				<path
					d="m24.514 18.359c0.37337 0 0.67606-0.30266 0.67606-0.67603 0-0.3734-0.3027-0.67606-0.67606-0.67606-0.37337 0-0.67606 0.30266-0.67606 0.67606 0 0.37337 0.3027 0.67603 0.67606 0.67603"></path>
			</g>
			<path
				d="m23.669 10.077c-0.18667 0-0.33803 0.15136-0.33803 0.33807v0.33796c0-0.18667-0.1514-0.33803-0.33807-0.33803h-0.67603c-0.1867 0-0.33803 0.15133-0.33807 0.33803v3.8101c-8.5e-4 -0.05074-0.15182-0.09178-0.338-0.09178h-0.28138c0.02327-0.11493 0.0032-0.23868-0.06603-0.3437l-0.7268-1.1032c-0.13908-0.21106-0.42549-0.26994-0.63659-0.13094l-0.60256 0.39706c-0.10073 0.06631-0.16631 0.16638-0.19276 0.27568h-0.55887c-0.25277 0-0.45955 0.20678-0.45955 0.45951v0.44556h-0.18408l0.12286-0.29802c0.09634-0.23365-0.01607-0.5036-0.24969-0.59994l-0.66714-0.27504c-0.23369-0.09634-0.50363 0.016-0.59998 0.24966l-0.05531 0.13423v-0.54743c0-0.25274-0.20681-0.45952-0.45952-0.45952h-0.72163c-0.25274 0-0.45952 0.20678-0.45952 0.45952v0.54771c-0.04317-0.04585-0.09613-0.08367-0.15792-0.10912l-0.66715-0.27504c-0.23365-0.09634-0.50363 0.016-0.59998 0.24966l-0.21914 0.53153-0.66555-0.44195c-0.21053-0.13986-0.49719-0.08197-0.63698 0.12856l-0.39922 0.60118c-0.02195 0.03304-0.03848 0.06809-0.05088 0.10403h-2.3117c-0.18663 0-0.33803 0.04129-0.33803 0.0922v1.8439c0 0.05092 0.1514 0.09216 0.33803 0.09216h0.33725c-0.18631 4.25e-4 -0.33729 0.15161-0.33729 0.33803v0.67603c0 0.18667 0.15137 0.33803 0.33803 0.33803h0.34607c0.085721 0.94622 0.88291 1.6901 1.8511 1.6901 0.96818 0 1.7654-0.74387 1.8511-1.6901h0.01611c0.08573 0.94622 0.88292 1.6901 1.8511 1.6901 0.96814 0 1.7654-0.74387 1.8511-1.6901h0.68403c0 0.1867 0.1514 0.33803 0.33803 0.33803h2.3663c0.18663 0 0.33796-0.15133 0.338-0.33803h1.6982c0.08575 0.94622 0.88298 1.6901 1.8512 1.6901 1.0252 0 1.8591-0.83398 1.8592-1.8592 0-0.05697-3e-3 -0.11323-0.0081-0.16889h1.0221c1.06e-4 0.18663 0.1514 0.33793 0.33807 0.33793h0.33803c0.18667 0 0.33803-0.15136 0.33803-0.33807v-0.67603c0-0.18667-0.15136-0.33807-0.33803-0.33807v-1.4004c0-0.4149-0.07637-0.82623-0.22533-1.2134l-1.298-3.3752c-0.10045-0.2612-0.35135-0.43342-0.63106-0.43342zm0.338 2.7043v-1.6902c0-0.18667 0.15137-0.33807 0.33807-0.33807h1.4617c0.27972 0 0.53058 0.17226 0.63103 0.43338l0.61573 1.601c0.06157 0.15997-0.05658 0.33191-0.22799 0.33191h-2.4805c-0.1867 0-0.33807-0.15136-0.33807-0.33803m-9.1647 1.6147v0.05998c0 0.0052 6.37e-4 0.01027 8.14e-4 0.01544h-0.0319zm-5.3705 1.0895c0-0.1867 0.1514-0.33807 0.33803-0.33807h11.155c0.18667 0 0.33807 0.15136 0.33807 0.33807 0 0.18667-0.1514 0.338-0.33807 0.338h-11.155c-0.18663 0-0.33803-0.15137-0.33803-0.338m17.724 0.338v-0.338c0-0.1867 0.15137-0.33803 0.33807-0.33803h0.33807v1.0141h-0.33807c-0.18667 0-0.33807-0.1514-0.33807-0.33807m-4.231 1.8592c0-0.85565 0.69359-1.5493 1.5493-1.5493 0.85565 0 1.5493 0.69366 1.5493 1.5493 0 0.85565-0.69363 1.5493-1.5493 1.5493-0.85572 0-1.5493-0.69366-1.5493-1.5493m-9.1268 0c0-0.85565 0.69363-1.5493 1.5493-1.5493 0.85565 0 1.5493 0.69366 1.5493 1.5493 0 0.85565-0.69366 1.5493-1.5493 1.5493-0.85569 0-1.5493-0.69366-1.5493-1.5493m-3.7184 0c0-0.85565 0.69363-1.5493 1.5493-1.5493 0.85565 0 1.5493 0.69366 1.5493 1.5493 0 0.85565-0.69366 1.5493-1.5493 1.5493-0.85569 0-1.5493-0.69366-1.5493-1.5493m8.1409-0.50703c0-0.1867 0.15133-0.33803 0.33807-0.33803 0.1867 0 0.33803 0.15133 0.33803 0.33803 0 0.1867-0.15133 0.33803-0.33803 0.33803-0.18674 0-0.33807-0.15133-0.33807-0.33803"></path>
		</g>
	</g>
</svg>
